<svg id="Layer_1" data-name="Layer 1" xmlns="http://www.w3.org/2000/svg" viewBox="0 0 475.25 228.09"><defs><style>.cls-1{fill:#30f906;}</style></defs><title>Artboard 1</title><path id="path1334" class="cls-1" d="M462.84,114.05l-50-28.9v20.61H157l49.8-52.61a26.3,26.3,0,0,1,15.49-5.91l41.82,0a25,25,0,1,0,0-16.52H222.82c-11.2,0-22.94,6.15-30.41,13.35.2-.21.42-.44,0,0-.16.18-52.83,55.81-52.83,55.81a26.29,26.29,0,0,1-15.47,5.9H95.16a41.8,41.8,0,1,0,0,16.53h91.52a26.29,26.29,0,0,1,15.45,5.91L255,184c.42.45.21.21,0,0,7.47,7.2,19.21,13.35,30.42,13.35h39.83v16.78h50v-50h-50v16.76s-10.49,0-40.32,0a26.3,26.3,0,0,1-15.49-5.91L219.59,122.3H412.8v20.65Z"/></svg>