<?xml version="1.0" encoding="utf-8"?>
<!-- Generator: Adobe Illustrator 21.1.0, SVG Export Plug-In . SVG Version: 6.00 Build 0)  -->
<svg version="1.1" id="Layer_1" xmlns="http://www.w3.org/2000/svg" xmlns:xlink="http://www.w3.org/1999/xlink" x="0px" y="0px"
	 viewBox="0 0 1280 168" style="enable-background:new 0 0 1280 168;" xml:space="preserve">
<style type="text/css">
	.st0{fill:#FF0000;}
</style>
<g>
	<path class="st0" d="M144.5,1.8v63.4h-12.1c-1.2-40.6-23-53.7-37.5-53.7c-5.8,0-8,1.9-8,8V145c0,4.8,0.2,9.9,11.9,9.9h14v11.4H34
		v-11.4h14c11.6,0,11.9-5.1,11.9-9.9V19.5c0-6.8-3.1-8-8-8c-14.3,0-36.8,13.1-37.5,53.7H2.3V1.8H144.5z"/>
	<path class="st0" d="M295.2,61.1c-4.6-35.1-21.5-47.9-42.8-47.9h-25.6c-9.4,0-11.9,3.4-11.9,7.5v56.8h15.2
		c15.5,0,23.7-7.3,23.7-25.9v-5.8h11.9v75.5h-11.9v-4.8c0-10.4-3.1-27.6-23-27.6h-16v58.8c0,3.9,2.4,7.3,11.9,7.3H257
		c31.4,0,38.2-32.9,38.2-47.7v-4.4h11.9v63.4H161.9v-11.4h14c9.4,0,11.9-3.4,11.9-7.3v-127c0-4.1-2.4-7.5-11.9-7.5h-14V1.8h145.1
		v59.3H295.2z"/>
	<path class="st0" d="M422,1.8c48.4,0,68.9,19.4,68.9,40.9c0,17.7-13.5,36.8-53.2,40.6v1.9c24.4,5.1,29.8,21.5,32.4,32.7
		c3.6,15.2,4.4,31.4,14.5,31.4c8.7,0,10.2-9.2,10.2-19.8v-2.9h12.3v5.6c0,13.1-3.4,37.5-29.8,37.5c-23.9,0-30.5-16.9-35.8-51.3
		c-2.2-14-4.8-31.9-33.9-31.9h-19.1V145c0,4.8,0.2,9.9,11.9,9.9h14v11.4h-78.9v-11.4h14c11.6,0,11.9-5.1,11.9-9.9V23.1
		c0-4.8-0.2-9.9-11.9-9.9h-14V1.8H422z M410.8,75.1c10.6,0,46-0.5,46-32.2c0-29-31.7-29.8-37.7-29.8h-19.8
		c-10.4,0-10.6,4.8-10.6,9.4v52.5H410.8z"/>
	<path class="st0" d="M609.7,1.8c48.4,0,68.9,19.4,68.9,40.9c0,17.7-13.5,36.8-53.2,40.6v1.9c24.4,5.1,29.8,21.5,32.4,32.7
		c3.6,15.2,4.4,31.4,14.5,31.4c8.7,0,10.2-9.2,10.2-19.8v-2.9h12.3v5.6c0,13.1-3.4,37.5-29.8,37.5c-23.9,0-30.5-16.9-35.8-51.3
		c-2.2-14-4.8-31.9-33.9-31.9h-19.1V145c0,4.8,0.2,9.9,11.9,9.9h14v11.4h-78.9v-11.4h14c11.6,0,11.9-5.1,11.9-9.9V23.1
		c0-4.8-0.2-9.9-11.9-9.9h-14V1.8H609.7z M598.6,75.1c10.6,0,46-0.5,46-32.2c0-29-31.7-29.8-37.7-29.8h-19.8
		c-10.4,0-10.6,4.8-10.6,9.4v52.5H598.6z"/>
	<path class="st0" d="M702.3,154.9h2.9c11.6,0,21-5.1,26.6-18.4L790.4-1.6h13.5l59,137.4c5.8,13.5,12.8,19.1,29,19.1v11.4h-80.1
		v-11.4h10.9c10.2,0,14.3-3.4,14.3-7.5c0-1.5-0.2-2.9-0.7-4.1L824.5,115h-68.7l-6.8,17.2c-1,2.2-1.9,4.8-1.9,8
		c0,7.5,5.1,14.8,16.9,14.8h6.8v11.4h-68.5V154.9z M819.4,103.6l-29.5-69.2h-1.2l-28.3,69.2H819.4z"/>
	<path class="st0" d="M1099.3,1.8v63.4h-12.1c-1.2-40.6-23-53.7-37.5-53.7c-5.8,0-8,1.9-8,8V145c0,4.8,0.2,9.9,11.9,9.9h14v11.4
		h-78.9v-11.4h14c11.6,0,11.9-5.1,11.9-9.9V19.5c0-6.8-3.1-8-8-8c-14.3,0-36.8,13.1-37.5,53.7h-12.1V1.8H1099.3z"/>
	<path class="st0" d="M1234,41.5c1.7-5.1,4.6-12.6,4.6-18.9c0-7.5-5.6-9.4-11.1-9.4h-7V1.8h59.5v11.4h-3.4
		c-18.6,0-24.2,12.6-28.5,25.2l-46.2,131.4h-12.1L1138,31.8c-6-16.5-12.3-18.6-21.8-18.6h-7.3V1.8h71.4v11.4h-10.4
		c-2.9,0-8,0.5-8,5.6c0,2.7,1,7.3,2.4,11.1l37.3,100.6h1.5L1234,41.5z"/>
</g>
</svg>
