<?xml version="1.0" encoding="utf-8"?>
<!-- Generator: Adobe Illustrator 21.1.0, SVG Export Plug-In . SVG Version: 6.00 Build 0)  -->
<svg version="1.1" id="Layer_1" xmlns:svg="http://www.w3.org/2000/svg"
	 xmlns="http://www.w3.org/2000/svg" xmlns:xlink="http://www.w3.org/1999/xlink" x="0px" y="0px" viewBox="0 0 475.2 228.1"
	 style="enable-background:new 0 0 475.2 228.1;" xml:space="preserve">
<style type="text/css">
	.st0{fill:#30F906;}
</style>
<path id="path1334" class="st0" d="M462.8,114.1l-50-28.9v20.6H157l49.8-52.6c4.2-3.4,9.8-5.8,15.5-5.9c23.1,0,36.8,0,41.8,0
	C267.6,57,276.8,64,287.7,64c13.8,0,25-11.2,25-25c0-13.8-11.2-25-25-25c-10.9,0-20.1,7-23.5,16.8l-41.3,0
	c-11.2,0-22.9,6.1-30.4,13.4c0.2-0.2,0.4-0.4,0,0c-0.2,0.2-52.8,55.8-52.8,55.8c-4.2,3.4-9.8,5.8-15.5,5.9H95.2
	c-3.8-19.1-20.7-33.5-41-33.5C31.1,72.3,12.4,91,12.4,114c0,23.1,18.7,41.8,41.8,41.8c20.3,0,37.1-14.4,41-33.5h28.4
	c0.1,0,0.1,0,0.2,0h62.9c5.7,0.1,11.2,2.5,15.4,5.9c0,0,52.7,55.6,52.8,55.8c0.4,0.4,0.2,0.2,0,0c7.5,7.2,19.2,13.3,30.4,13.3
	l39.8,0v16.8h50v-50h-50v16.8c0,0-10.5,0-40.3,0c-5.7-0.1-11.3-2.5-15.5-5.9l-49.8-52.6h193.2v20.6L462.8,114.1z"/>
</svg>
