<?xml version="1.0" encoding="utf-8"?>
<!-- Generator: Adobe Illustrator 21.1.0, SVG Export Plug-In . SVG Version: 6.00 Build 0)  -->
<svg version="1.1" id="Layer_1" xmlns="http://www.w3.org/2000/svg" xmlns:xlink="http://www.w3.org/1999/xlink" x="0px" y="0px"
	 viewBox="0 0 1280 719" style="enable-background:new 0 0 1280 719;" xml:space="preserve">
<style type="text/css">
	.st0{fill:#0000FF;}
	.st1{fill:#FFA300;}
	.st2{fill:none;stroke:#0000FF;stroke-width:10;stroke-miterlimit:10;}
</style>
<g id="L54sWz.tif_1_">
	<g>
		<path class="st0" d="M640.8,12.7c83.9,2.5,135.7,85.5,101.2,162.1c-14.3,31.8-0.4,66.2,31.2,77.1c30.7,10.6,63.5-7,71.5-38.7
			c3.3-13.3,1.5-26-4.5-38.4c-32.1-66.4,7.6-145.5,79.9-159.8c56.7-11.2,112.1,21.1,130.1,75.7c18,54.8-7.9,114.1-60.9,138.4
			c-22.8,10.4-37.1,26.6-37.8,52.4c-0.7,25.2,16.7,47.6,41.1,54.1c25,6.6,50.8-4.8,63.2-28.4c15.6-29.7,39.2-49.5,71.5-58.4
			c64-17.6,128.7,23.2,141.3,88.8c12.3,64.1-33.2,125.5-98.6,133c-46.4,5.3-89.4-16.7-112.5-58.4c-12.1-21.8-29.6-33.9-54.9-32.6
			c-25.3,1.3-46.4,21-50.6,46.3c-4.1,24.9,9.7,49.4,33.8,59.7c32.7,14,55.2,37.9,64.9,72c13,45.4,2,85.4-33,116.9
			c-33.9,30.6-74.3,37.4-116.6,20.9c-42.4-16.5-66.2-49.1-71.3-94.6c-2.5-21.6,2.1-41.9,11.2-61.6c9.7-21,7-40.9-7.8-58.4
			c-14.3-16.9-33.1-23.1-54.7-17.9c-22,5.3-35.6,19.7-41,41.6c-3.2,13-0.4,25.4,4.8,37.7c19.1,45.4,13.9,87.8-19.4,124.5
			c-30.8,33.9-70.3,44.5-114,32.3c-43.9-12.3-70.8-42.5-80.4-87.2c-5.3-24.6-1.6-48.4,9.1-71.2c11.4-24.2,5.2-51.2-15.3-67.4
			c-20.2-16-48.6-15.9-68.5,0.1c-20.7,16.6-25.8,43.5-14.7,68.3c19.7,44.1,14.7,86-16.7,122.6c-31.3,36.4-72.4,47.9-118.1,34.3
			c-45.4-13.5-72.5-45.6-79.4-92.8c-7.4-51.1,19.4-98.2,66.7-119.4c26.1-11.7,39-33.5,35.7-60.4c-2.8-23-22-42.1-46.7-46.4
			c-22.4-3.9-45.5,8.1-57,29.7c-19.7,36.6-50.1,57.4-91.5,61.9C73.6,477.4,17.2,432.8,10,374.5c-8.8-70.9,44.4-131.3,115.3-129.3
			c43,1.2,75.5,21.8,96.6,59.3c9.5,16.9,22.3,28.7,41.8,31.8c28.6,4.5,54.4-12.3,62.2-39.8c7.5-26.8-6.1-54.3-32.5-65.7
			c-36.9-16-59.7-43.9-67.8-83.2c-12.8-62.9,31.1-124.4,94.8-133.7c63.7-9.3,122.2,36.1,129,100c2.3,21.6-1.1,42.1-10.6,61.6
			c-11.5,23.6-5.7,50.7,14.9,67.5c19.4,15.9,47.8,16.2,67.8,0.8c20.7-15.9,27.8-43.6,16.6-67.2c-14.1-29.7-15.7-59.9-4.5-90.6
			C549.7,42,594.7,11.4,640.8,12.7z"/>
	</g>
</g>
<g>
	<path class="st1" d="M124.3,204.9l79.8,260.2l80.2-260.2h46.1v309.7h-31.9V256.9h-0.7l-79.1,257.6h-28.7l-79.1-257.6h-0.7v257.6
		H78.2V204.9H124.3z"/>
	<path class="st1" d="M347.9,298.8c5.1-19.5,12.7-36.8,22.9-51.8c10.2-15,22.8-27,38-36c15.1-9,32.7-13.4,52.8-13.4
		c20.1,0,37.7,4.5,52.8,13.4c15.1,9,27.8,21,38,36c10.2,15,17.8,32.3,22.9,51.8c5.1,19.5,7.6,39.8,7.6,60.9
		c0,21.1-2.5,41.4-7.6,60.9c-5.1,19.5-12.7,36.8-22.9,51.8c-10.2,15-22.8,27-38,35.8c-15.1,8.8-32.8,13.2-52.8,13.2
		c-20.1,0-37.7-4.4-52.8-13.2c-15.1-8.8-27.8-20.7-38-35.8c-10.2-15-17.8-32.3-22.9-51.8c-5.1-19.5-7.6-39.8-7.6-60.9
		C340.3,338.6,342.8,318.3,347.9,298.8z M379,405.9c3.3,15.2,8.5,28.8,15.6,41c7.1,12.1,16.2,21.9,27.3,29.3
		c11.1,7.4,24.4,11.1,39.7,11.1c15.4,0,28.6-3.7,39.7-11.1c11.1-7.4,20.2-17.1,27.3-29.3c7.1-12.1,12.3-25.8,15.6-41
		c3.3-15.2,5-30.6,5-46.2c0-15.6-1.7-31-5-46.2c-3.3-15.2-8.5-28.8-15.6-41c-7.1-12.1-16.2-21.9-27.3-29.3
		c-11.1-7.4-24.4-11.1-39.7-11.1c-15.4,0-28.6,3.7-39.7,11.1c-11.1,7.4-20.2,17.1-27.3,29.3c-7.1,12.1-12.3,25.8-15.6,41
		c-3.3,15.2-5,30.6-5,46.2C374,375.3,375.6,390.7,379,405.9z"/>
	<path class="st1" d="M711.3,204.9c24.1,0,43,7.2,56.6,21.7c13.6,14.5,20.4,34.3,20.4,59.4c0,18.8-3.5,35.3-10.5,49.4
		c-7,14.2-18.1,23.9-33.5,29.1v0.9c7.3,1.7,13.3,4.6,17.9,8.7c4.6,4.1,8.3,8.9,11,14.5c2.7,5.6,4.7,11.9,6,18.9
		c1.3,6.9,2.3,14.2,3,21.7c0.5,7.5,0.8,15.2,1.1,23c0.2,7.8,0.8,15.5,1.8,23c0.9,7.5,2.3,14.7,4.1,21.5c1.8,6.8,4.4,12.8,8,18h-37.6
		c-2.4-3.2-4-7.5-4.8-13c-0.8-5.5-1.4-11.6-1.6-18.4c-0.2-6.8-0.5-14.1-0.7-21.9c-0.2-7.8-0.9-15.5-2.1-23
		c-0.9-7.5-2.1-14.7-3.5-21.5c-1.4-6.8-3.7-12.7-6.7-17.8c-3.1-5.1-7.1-9.1-12.1-12.1c-5-3-11.6-4.6-19.9-4.6h-82.3v132.3h-33.7
		V204.9H711.3z M718.4,345.4c7.1-1.4,13.3-4.3,18.6-8.5c5.3-4.2,9.6-9.8,12.8-16.9c3.2-7.1,4.8-16.3,4.8-27.5
		c0-15.6-3.5-28.3-10.6-38.2c-7.1-9.8-18.6-14.7-34.4-14.7h-83.7v108H696C703.8,347.6,711.3,346.9,718.4,345.4z"/>
	<path class="st1" d="M914.2,204.9c25.5,0,44.9,8,58,24.1c13.1,16,19.7,38.5,19.7,67.4c0,28.9-6.6,51.5-19.7,67.7
		c-13.1,16.2-32.5,24.1-58,23.9h-77.3v126.7h-33.7V204.9H914.2z M902.8,353.2c19.2,0.3,33.2-4.5,42-14.3c8.9-9.8,13.3-24,13.3-42.5
		c0-18.5-4.4-32.6-13.3-42.3c-8.9-9.7-22.9-14.5-42-14.5h-66v113.6H902.8z"/>
	<path class="st1" d="M1034.8,204.9V338h133.4V204.9h33.7v309.7h-33.7V372.7h-133.4v141.8h-33.7V204.9H1034.8z"/>
</g>
<g id="L54sWz.tif">
	<g>
		<path class="st2" d="M640.8,12.7c83.9,2.5,135.7,85.5,101.2,162.1c-14.3,31.8-0.4,66.2,31.2,77.1c30.7,10.6,63.5-7,71.5-38.7
			c3.3-13.3,1.5-26-4.5-38.4c-32.1-66.4,7.6-145.5,79.9-159.8c56.7-11.2,112.1,21.1,130.1,75.7c18,54.8-7.9,114.1-60.9,138.4
			c-22.8,10.4-37.1,26.6-37.8,52.4c-0.7,25.2,16.7,47.6,41.1,54.1c25,6.6,50.8-4.8,63.2-28.4c15.6-29.7,39.2-49.5,71.5-58.4
			c64-17.6,128.7,23.2,141.3,88.8c12.3,64.1-33.2,125.5-98.6,133c-46.4,5.3-89.4-16.7-112.5-58.4c-12.1-21.8-29.6-33.9-54.9-32.6
			c-25.3,1.3-46.4,21-50.6,46.3c-4.1,24.9,9.7,49.4,33.8,59.7c32.7,14,55.2,37.9,64.9,72c13,45.4,2,85.4-33,116.9
			c-33.9,30.6-74.3,37.4-116.6,20.9c-42.4-16.5-66.2-49.1-71.3-94.6c-2.5-21.6,2.1-41.9,11.2-61.6c9.7-21,7-40.9-7.8-58.4
			c-14.3-16.9-33.1-23.1-54.7-17.9c-22,5.3-35.6,19.7-41,41.6c-3.2,13-0.4,25.4,4.8,37.7c19.1,45.4,13.9,87.8-19.4,124.5
			c-30.8,33.9-70.3,44.5-114,32.3c-43.9-12.3-70.8-42.5-80.4-87.2c-5.3-24.6-1.6-48.4,9.1-71.2c11.4-24.2,5.2-51.2-15.3-67.4
			c-20.2-16-48.6-15.9-68.5,0.1c-20.7,16.6-25.8,43.5-14.7,68.3c19.7,44.1,14.7,86-16.7,122.6c-31.3,36.4-72.4,47.9-118.1,34.3
			c-45.4-13.5-72.5-45.6-79.4-92.8c-7.4-51.1,19.4-98.2,66.7-119.4c26.1-11.7,39-33.5,35.7-60.4c-2.8-23-22-42.1-46.7-46.4
			c-22.4-3.9-45.5,8.1-57,29.7c-19.7,36.6-50.1,57.4-91.5,61.9C73.6,477.4,17.2,432.8,10,374.5c-8.8-70.9,44.4-131.3,115.3-129.3
			c43,1.2,75.5,21.8,96.6,59.3c9.5,16.9,22.3,28.7,41.8,31.8c28.6,4.5,54.4-12.3,62.2-39.8c7.5-26.8-6.1-54.3-32.5-65.7
			c-36.9-16-59.7-43.9-67.8-83.2c-12.8-62.9,31.1-124.4,94.8-133.7c63.7-9.3,122.2,36.1,129,100c2.3,21.6-1.1,42.1-10.6,61.6
			c-11.5,23.6-5.7,50.7,14.9,67.5c19.4,15.9,47.8,16.2,67.8,0.8c20.7-15.9,27.8-43.6,16.6-67.2c-14.1-29.7-15.7-59.9-4.5-90.6
			C549.7,42,594.7,11.4,640.8,12.7z"/>
	</g>
</g>
</svg>
